<svg id="svg2" xmlns:inkscape="http://www.inkscape.org/namespaces/inkscape" xmlns:rdf="http://www.w3.org/1999/02/22-rdf-syntax-ns#" xmlns="http://www.w3.org/2000/svg" sodipodi:docname="logo.svg" xml:space="preserve" height="266.87" viewBox="0 0 271.43625 266.87308" width="271.44" version="1.1" xmlns:cc="http://creativecommons.org/ns#" xmlns:dc="http://purl.org/dc/elements/1.1/" inkscape:version="0.91 r13725" xmlns:sodipodi="http://sodipodi.sourceforge.net/DTD/sodipodi-0.dtd"><sodipodi:namedview id="namedview4" fit-margin-left="0" inkscape:zoom="1.056" borderopacity="1" inkscape:current-layer="g12" inkscape:cx="130.5811" inkscape:cy="147.59009" inkscape:window-maximized="0" showgrid="false" fit-margin-right="0" bordercolor="#666666" inkscape:window-x="101" guidetolerance="10" objecttolerance="10" inkscape:window-y="37" fit-margin-bottom="0" inkscape:window-width="1382" inkscape:pageopacity="0" inkscape:pageshadow="2" pagecolor="#ffffff" gridtolerance="10" inkscape:window-height="794" fit-margin-top="0"/><g id="g10" inkscape:label="free_logo_4" inkscape:groupmode="layer" transform="matrix(1.25 0 0 -1.25 -168.06 322.5)"><g id="g12"><g id="g4228" stroke-opacity="0" fill="#fff"><g id="g20" transform="translate(318.4 257.5)"><path id="path22" d="m0 0c0.466-18.533-3.134-33.4-10.801-44.6-5.166-7.533-12.133-13.433-20.899-17.7-2.533-1.233-5.101-2.317-7.7-3.25-7.434-2.5-15.6-4.083-24.5-4.75l0.2 8c0.2 1.033 0.366 2.583 0.5 4.65 0.566 4.6 1.433 8.95 2.599 13.05 7.601 27.333 27.8 42.2 60.601 44.6" stroke-opacity="0" fill-rule="evenodd" inkscape:connector-curvature="0" fill="#fff"/></g><path id="path26" d="m285.85 138.7-37.95 31.9h-75.85l65.85-79.751c6.667-6.699 14.667-9.983 24.001-9.849 8.899-0.134 16.583 2.917 23.05 9.15l0.899 0.8c3.101 3.033 5.483 6.467 7.15 10.3 1.767 4.134 2.651 8.7 2.651 13.7 0 9.333-3.267 17.25-9.801 23.75zm-115.55 97.15 77.6-65.25h98.7c-0.267-40.133-10.316-70.35-30.149-90.65-19.701-20.233-43.55-30.384-71.551-30.45h-3.8c-28 0.066-51.866 10.217-71.6 30.45-19.833 20.333-29.85 50.55-30.049 90.65h32.599l-30.25 36.65c-1.433 1.433-2.15 3.083-2.15 4.95 0 0.267 0.033 0.5 0.1 0.7 0.134 1.667 0.817 3.116 2.05 4.35l18.55 18.6c1.367 1.333 3 2 4.9 2 2 0.133 3.683-0.533 5.05-2z" inkscape:connector-curvature="0" stroke-miterlimit="3"/></g></g></g></svg>
